# xmcd CD database file
#
# Track frame offsets:
#	150
#	2844
#	5408
#	20202
#	30788
#	41595
#	50670
#	62846
#	72776
#	84328
#	94709
#	106703
#	116678
#	126681
#	139045
#	150595
#	161934
#	170785
#	185632
#	196266
#	207108
#	216136
#	227491
#	237427
#	249478
#	260927
#	272899
#	282859
#	292865
#	305192
#	316689
#	328030
#
# Disc length: 4492 seconds
#
# Revision: 0
# Processed by: cddbd v1.5.2PL0 Copyright (c) Steve Scherf et al.
# Submitted via: CDex 1.70beta2
#
DISCID=d4118a20
DTITLE=Jim Snidero - Intermediate Jazz Conception for Flute
DYEAR=1900
DGENRE=Jazz
TTITLE0=Tuning note (A)
TTITLE1=Tuning note (Bb)
TTITLE2=Splank Street
TTITLE3=Melon Island
TTITLE4=green Fin
TTITLE5=St. Sonny
TTITLE6=Voyage
TTITLE7=Confirmed
TTITLE8=Miles' Blues
TTITLE9=Freedom
TTITLE10=Bird's Ballad
TTITLE11=Trane's Thing
TTITLE12=You Need Not
TTITLE13=Things
TTITLE14=Days Ago
TTITLE15=Stellar
TTITLE16=Night Eyes
TTITLE17=Splank Street minus one
TTITLE18=Melon Island minus one
TTITLE19=Green Fin minus one
TTITLE20=St. Sonny minus one
TTITLE21=Voyage minus one
TTITLE22=Confirmed minus one
TTITLE23=Miles' Blues minus one
TTITLE24=Freedom minus one
TTITLE25=Bird's Ballad minus one
TTITLE26=Trane's Thing minus one
TTITLE27=You Need Not minus one
TTITLE28=Things minus one
TTITLE29=Days Ago minus one
TTITLE30=Stellar minus one
TTITLE31=Night Eyes minus one
EXTD=
EXTT0=
EXTT1=
EXTT2=
EXTT3=
EXTT4=
EXTT5=
EXTT6=
EXTT7=
EXTT8=
EXTT9=
EXTT10=
EXTT11=
EXTT12=
EXTT13=
EXTT14=
EXTT15=
EXTT16=
EXTT17=
EXTT18=
EXTT19=
EXTT20=
EXTT21=
EXTT22=
EXTT23=
EXTT24=
EXTT25=
EXTT26=
EXTT27=
EXTT28=
EXTT29=
EXTT30=
EXTT31=
PLAYORDER=
